<?xml version="1.0" standalone="no"?><!DOCTYPE svg PUBLIC "-//W3C//DTD SVG 1.1//EN" "http://www.w3.org/Graphics/SVG/1.1/DTD/svg11.dtd"><svg t="1574057870305" class="icon" viewBox="0 0 1024 1024" version="1.1" xmlns="http://www.w3.org/2000/svg" p-id="1921" width="128" height="128" xmlns:xlink="http://www.w3.org/1999/xlink"><defs><style type="text/css"></style></defs><path d="M511.583 917.703L159.958 714.712V575.263h-36.209v160.291l387.834 223.922 170.801-98.603-18.104-31.352-152.697 88.182zM159.958 308.641L511.583 105.65l127.041 73.39 18.104-31.352-145.145-83.811-387.834 223.922v214.693h36.209V308.641z m564.949-121.609l-18.104 31.352 156.361 90.258v406.027l-141.348 81.603 18.104 31.352L899.372 735.6V287.8L724.907 187.032z m-65.129 455.571c-1.871 0-3.516 0.707-5.282 1.071l-22.241-22.255c21.518-25.109 35.569-56.32 39.46-90.887h66.374c6.008 11.177 17.423 19.076 30.979 19.076 19.628 0 35.591-15.985 35.591-35.591s-15.963-35.591-35.591-35.591c-13.556 0-24.971 7.899-30.979 19.076H672.19c-2.978-35.235-16.537-67.169-37.807-92.993l22.04-22.057c1.148 0.149 2.166 0.682 3.356 0.682 14.947 0 27.113-12.187 27.113-27.113 0-14.925-12.165-27.113-27.113-27.113s-27.113 12.187-27.113 27.113c0 1.035 0.48 1.915 0.593 2.923l-22.228 22.241c-25.84-21.234-57.774-34.76-92.998-37.702V280.54c11.186-6.011 19.076-17.437 19.076-30.982 0-19.606-15.963-35.591-35.591-35.591s-35.591 15.985-35.591 35.591c0 13.545 7.89 24.971 19.076 30.982v63.454c-34.495 3.919-65.648 17.967-90.716 39.46l-22.62-22.606c0.119-1.021 0.602-1.921 0.602-2.972 0-14.925-12.165-27.113-27.113-27.113-14.947 0-27.113 12.187-27.113 27.113 0 14.925 12.165 27.113 27.113 27.113 1.184 0 2.2-0.53 3.345-0.679l22.937 22.926c-20.006 25.344-32.685 56.276-35.558 90.266h-70.91c-6.008-11.177-17.423-19.076-30.979-19.076-19.628 0-35.591 15.985-35.591 35.591s15.963 35.591 35.591 35.591c13.556 0 24.971-7.899 30.979-19.076h71.386c3.751 33.328 16.954 63.504 37.2 88.152l-26.229 26.213c-0.753-0.063-1.399-0.439-2.169-0.439-14.947 0-27.113 12.187-27.113 27.113s12.165 27.113 27.113 27.113c14.947 0 27.113-12.187 27.113-27.113 0-1.468-0.613-2.738-0.839-4.145l25.424-25.41c24.634 20.301 54.813 33.554 88.149 37.343v70.519c-11.186 6.011-19.076 17.437-19.076 30.982 0 19.606 15.963 35.591 35.591 35.591s35.591-15.985 35.591-35.591c0-13.545-7.89-24.971-19.076-30.982v-70.009c34.051-2.845 65.041-15.532 90.423-35.574l24.411 24.425c-0.014 0.35-0.201 0.643-0.201 0.996 0 14.925 12.165 27.113 27.113 27.113s27.113-12.187 27.113-27.113-12.169-27.113-27.116-27.113z m-141.502-188.32c26.177 6.557 46.012 29.194 46.012 57.393 0 8.437-1.794 16.435-4.932 23.729l-41.08-27.957v-53.165zM502.07 536.36l35.406 24.096c-9.701 6.684-20.793 11.495-33.441 11.495-13.018 0-24.433-5.028-34.294-12.072l32.329-23.519z m-53.654-1.774c-2.923-7.076-4.634-14.787-4.634-22.909 0-26.585 17.553-48.479 41.464-56.474v52.589l-36.83 26.794z m-62.071 45.159c-11.68-20.119-18.866-43.169-18.866-68.069 0-68.896 51.402-125.423 117.768-134.68v43.28c-42.452 8.724-74.493 46.393-74.493 91.4 0 15.386 4.101 29.699 10.727 42.507l-35.136 25.562z m117.69 68.51c-38.547 0-73.249-16.186-98.101-41.955l35.572-25.879c16.581 15.102 38.398 24.56 62.53 24.56 24.184 0 46.051-9.491 62.643-24.654l36.43 24.794c-24.917 26.415-59.978 43.134-99.074 43.134z m82.652-94.251c6.568-12.764 10.631-27.013 10.631-42.328 0-46.564-34.401-84.939-79.042-91.864v-43.274c68.543 7.234 122.316 64.682 122.316 135.138 0 24.339-6.919 46.876-18.116 66.683l-35.789-24.355z" fill="#1296db" p-id="1922"></path></svg>